<svg width="261" height="42" viewBox="0 0 261 42" fill="none" xmlns="http://www.w3.org/2000/svg">
<path d="M93.744 18.696C96.9227 18.696 99.3867 19.464 101.136 21C102.907 22.536 103.792 24.6693 103.792 27.4C103.792 28.2533 103.717 29.0853 103.568 29.896C103.163 32.1787 102.331 34.1627 101.072 35.848C99.8347 37.512 98.2453 38.792 96.304 39.688C94.384 40.5627 92.208 41 89.776 41H82.832L86.8 18.696H93.744ZM90.192 38.76C93.0507 38.76 95.376 37.9813 97.168 36.424C98.96 34.8453 100.101 32.6693 100.592 29.896C100.72 29.128 100.784 28.4027 100.784 27.72C100.784 25.608 100.155 23.976 98.896 22.824C97.6373 21.6507 95.7813 21.064 93.328 21.064H89.296L86.16 38.76H90.192ZM105.905 32.168C106.225 30.376 106.865 28.808 107.825 27.464C108.806 26.0987 109.99 25.0427 111.377 24.296C112.785 23.5493 114.278 23.176 115.857 23.176C117.393 23.176 118.662 23.5067 119.665 24.168C120.668 24.8293 121.361 25.6613 121.745 26.664L122.321 23.464H125.265L122.161 41H119.217L119.825 37.736C119.057 38.76 118.044 39.6133 116.785 40.296C115.526 40.9573 114.14 41.288 112.625 41.288C111.26 41.288 110.054 41 109.009 40.424C107.964 39.8267 107.153 38.984 106.577 37.896C106.001 36.808 105.713 35.5493 105.713 34.12C105.713 33.48 105.777 32.8293 105.905 32.168ZM120.785 32.2C120.87 31.752 120.913 31.272 120.913 30.76C120.913 29.2027 120.444 27.976 119.505 27.08C118.588 26.1627 117.414 25.704 115.985 25.704C114.897 25.704 113.852 25.96 112.849 26.472C111.868 26.984 111.025 27.7307 110.321 28.712C109.617 29.6933 109.148 30.8453 108.913 32.168C108.828 32.616 108.785 33.1067 108.785 33.64C108.785 35.2187 109.244 36.4667 110.161 37.384C111.078 38.28 112.252 38.728 113.681 38.728C114.769 38.728 115.804 38.472 116.785 37.96C117.788 37.4267 118.641 36.6693 119.345 35.688C120.07 34.6853 120.55 33.5227 120.785 32.2ZM151.338 23.144C153.13 23.144 154.559 23.6347 155.626 24.616C156.714 25.576 157.258 26.984 157.258 28.84C157.258 29.5227 157.205 30.1307 157.098 30.664L155.274 41H152.394L154.154 31.08C154.239 30.632 154.282 30.152 154.282 29.64C154.282 28.3387 153.93 27.3573 153.226 26.696C152.543 26.0133 151.573 25.672 150.314 25.672C148.863 25.672 147.615 26.12 146.57 27.016C145.546 27.8907 144.842 29.16 144.458 30.824L142.634 41H139.754L141.514 31.08C141.599 30.5893 141.642 30.0987 141.642 29.608C141.642 28.328 141.29 27.3573 140.586 26.696C139.903 26.0133 138.933 25.672 137.674 25.672C136.159 25.672 134.869 26.1627 133.802 27.144C132.735 28.104 132.042 29.5013 131.722 31.336V31.272L129.994 41H127.082L130.186 23.464H133.098L132.65 25.992C133.375 25.0747 134.271 24.3707 135.338 23.88C136.405 23.3893 137.525 23.144 138.698 23.144C140.17 23.144 141.407 23.4747 142.41 24.136C143.434 24.7973 144.106 25.768 144.426 27.048C145.151 25.8107 146.133 24.8507 147.37 24.168C148.629 23.4853 149.951 23.144 151.338 23.144ZM160.499 32.168C160.819 30.376 161.459 28.808 162.419 27.464C163.4 26.0987 164.584 25.0427 165.971 24.296C167.379 23.5493 168.872 23.176 170.451 23.176C171.987 23.176 173.256 23.5067 174.259 24.168C175.261 24.8293 175.955 25.6613 176.339 26.664L176.915 23.464H179.859L176.755 41H173.811L174.419 37.736C173.651 38.76 172.637 39.6133 171.379 40.296C170.12 40.9573 168.733 41.288 167.219 41.288C165.853 41.288 164.648 41 163.603 40.424C162.557 39.8267 161.747 38.984 161.171 37.896C160.595 36.808 160.307 35.5493 160.307 34.12C160.307 33.48 160.371 32.8293 160.499 32.168ZM175.379 32.2C175.464 31.752 175.507 31.272 175.507 30.76C175.507 29.2027 175.037 27.976 174.099 27.08C173.181 26.1627 172.008 25.704 170.579 25.704C169.491 25.704 168.445 25.96 167.443 26.472C166.461 26.984 165.619 27.7307 164.915 28.712C164.211 29.6933 163.741 30.8453 163.507 32.168C163.421 32.616 163.379 33.1067 163.379 33.64C163.379 35.2187 163.837 36.4667 164.755 37.384C165.672 38.28 166.845 38.728 168.275 38.728C169.363 38.728 170.397 38.472 171.379 37.96C172.381 37.4267 173.235 36.6693 173.939 35.688C174.664 34.6853 175.144 33.5227 175.379 32.2ZM184.3 38.6H192.908L192.46 41H180.524L180.94 38.6L191.724 25.832H183.276L183.692 23.464H195.468L195.052 25.832L184.3 38.6ZM201.326 20.616C200.857 20.616 200.462 20.4667 200.142 20.168C199.844 19.848 199.694 19.4533 199.694 18.984C199.694 18.344 199.929 17.8 200.398 17.352C200.868 16.8827 201.412 16.648 202.03 16.648C202.521 16.648 202.916 16.7973 203.214 17.096C203.513 17.3947 203.662 17.7893 203.662 18.28C203.662 18.92 203.428 19.4747 202.958 19.944C202.489 20.392 201.945 20.616 201.326 20.616ZM202.254 23.464L199.15 41H196.238L199.342 23.464H202.254ZM211.825 41.288C210.353 41.288 209.052 40.9893 207.921 40.392C206.812 39.7733 205.948 38.92 205.329 37.832C204.711 36.7227 204.401 35.4427 204.401 33.992C204.401 32.008 204.86 30.1947 205.777 28.552C206.695 26.888 207.953 25.576 209.553 24.616C211.175 23.656 212.977 23.176 214.961 23.176C216.433 23.176 217.735 23.4853 218.865 24.104C220.017 24.7013 220.903 25.5547 221.521 26.664C222.161 27.752 222.481 29.032 222.481 30.504C222.481 32.488 222.012 34.3013 221.073 35.944C220.135 37.5867 218.855 38.888 217.233 39.848C215.612 40.808 213.809 41.288 211.825 41.288ZM212.177 38.824C213.564 38.824 214.812 38.4507 215.921 37.704C217.031 36.936 217.895 35.9333 218.513 34.696C219.153 33.4373 219.473 32.0933 219.473 30.664C219.473 29.0427 219.004 27.8053 218.065 26.952C217.127 26.0773 215.953 25.64 214.545 25.64C213.159 25.64 211.921 26.024 210.833 26.792C209.745 27.5387 208.903 28.5413 208.305 29.8C207.708 31.0587 207.409 32.4133 207.409 33.864C207.409 35.4427 207.857 36.6693 208.753 37.544C209.649 38.3973 210.791 38.824 212.177 38.824Z" fill="#061E2D"/>
<path d="M16 12.696L13.088 29.176C12.7467 31.032 11.9147 32.504 10.592 33.592C9.29067 34.68 7.712 35.224 5.856 35.224C4.23467 35.224 2.95467 34.7973 2.016 33.944C1.09867 33.0907 0.64 31.9067 0.64 30.392C0.64 29.88 0.682667 29.4 0.768 28.952H3.68C3.616 29.272 3.584 29.592 3.584 29.912C3.584 30.744 3.808 31.4053 4.256 31.896C4.704 32.3867 5.39733 32.632 6.336 32.632C7.40267 32.632 8.256 32.312 8.896 31.672C9.55733 31.0107 9.984 30.1787 10.176 29.176L13.056 12.696H16ZM27.9768 35.224C26.1208 35.224 24.4888 34.84 23.0808 34.072C21.6728 33.2827 20.5741 32.184 19.7848 30.776C19.0168 29.368 18.6328 27.7573 18.6328 25.944C18.6328 23.4267 19.1981 21.144 20.3288 19.096C21.4808 17.0267 23.0594 15.4053 25.0648 14.232C27.0701 13.0373 29.3101 12.44 31.7848 12.44C33.6621 12.44 35.3048 12.8347 36.7128 13.624C38.1421 14.392 39.2408 15.48 40.0088 16.888C40.7768 18.2747 41.1608 19.8747 41.1608 21.688C41.1608 24.2267 40.5848 26.5307 39.4328 28.6C38.3021 30.648 36.7341 32.2693 34.7288 33.464C32.7234 34.6373 30.4728 35.224 27.9768 35.224ZM28.3928 32.6C30.2701 32.6 31.9448 32.12 33.4167 31.16C34.9101 30.1787 36.0728 28.8667 36.9048 27.224C37.7368 25.5813 38.1528 23.8 38.1528 21.88C38.1528 19.768 37.5448 18.104 36.3288 16.888C35.1128 15.672 33.4594 15.064 31.3688 15.064C29.4914 15.064 27.8061 15.5547 26.3128 16.536C24.8408 17.496 23.6888 18.7973 22.8568 20.44C22.0461 22.0613 21.6408 23.832 21.6408 25.752C21.6408 27.864 22.2381 29.5387 23.4328 30.776C24.6488 31.992 26.3021 32.6 28.3928 32.6ZM57.037 30.04H47.277L44.621 35H41.549L53.517 12.824H56.877L61.005 35H57.933L57.037 30.04ZM56.621 27.768L54.573 16.376L48.493 27.768H56.621ZM50.861 10.936C51.181 9.848 51.6717 9.016 52.333 8.44C53.0157 7.864 53.7837 7.576 54.637 7.576C55.0423 7.576 55.373 7.64 55.629 7.768C55.885 7.896 56.1943 8.09867 56.557 8.376C56.813 8.58933 57.0477 8.76 57.261 8.888C57.4957 8.99467 57.7517 9.048 58.029 9.048C58.3917 9.048 58.7117 8.93067 58.989 8.696C59.2877 8.46133 59.5117 8.12 59.661 7.672H61.357C61.037 8.73867 60.5357 9.56 59.853 10.136C59.1703 10.712 58.4023 11 57.549 11C57.1437 11 56.7917 10.936 56.493 10.808C56.2157 10.6587 55.9063 10.4453 55.565 10.168C55.2663 9.95467 55.021 9.79467 54.829 9.688C54.6583 9.58133 54.4343 9.528 54.157 9.528C53.7943 9.528 53.4743 9.64533 53.197 9.88C52.9197 10.1147 52.7063 10.4667 52.557 10.936H50.861ZM74.6955 35.224C72.8395 35.224 71.2075 34.84 69.7995 34.072C68.3915 33.2827 67.2928 32.184 66.5035 30.776C65.7355 29.368 65.3515 27.7573 65.3515 25.944C65.3515 23.4267 65.9168 21.144 67.0475 19.096C68.1995 17.0267 69.7782 15.4053 71.7835 14.232C73.7888 13.0373 76.0288 12.44 78.5035 12.44C80.3808 12.44 82.0235 12.8347 83.4315 13.624C84.8608 14.392 85.9595 15.48 86.7275 16.888C87.4955 18.2747 87.8795 19.8747 87.8795 21.688C87.8795 24.2267 87.3035 26.5307 86.1515 28.6C85.0208 30.648 83.4528 32.2693 81.4475 33.464C79.4422 34.6373 77.1915 35.224 74.6955 35.224ZM75.1115 32.6C76.9888 32.6 78.6635 32.12 80.1355 31.16C81.6288 30.1787 82.7915 28.8667 83.6235 27.224C84.4555 25.5813 84.8715 23.8 84.8715 21.88C84.8715 19.768 84.2635 18.104 83.0475 16.888C81.8315 15.672 80.1782 15.064 78.0875 15.064C76.2102 15.064 74.5248 15.5547 73.0315 16.536C71.5595 17.496 70.4075 18.7973 69.5755 20.44C68.7648 22.0613 68.3595 23.832 68.3595 25.752C68.3595 27.864 68.9568 29.5387 70.1515 30.776C71.3675 31.992 73.0208 32.6 75.1115 32.6Z" fill="#061E2D"/>
</svg>
