<svg width="253" height="42" viewBox="0 0 253 42" fill="none" xmlns="http://www.w3.org/2000/svg">
<path d="M85.744 18.696C88.9227 18.696 91.3867 19.464 93.136 21C94.9067 22.536 95.792 24.6693 95.792 27.4C95.792 28.2533 95.7173 29.0853 95.568 29.896C95.1627 32.1787 94.3307 34.1627 93.072 35.848C91.8347 37.512 90.2453 38.792 88.304 39.688C86.384 40.5627 84.208 41 81.776 41H74.832L78.8 18.696H85.744ZM82.192 38.76C85.0507 38.76 87.376 37.9813 89.168 36.424C90.96 34.8453 92.1013 32.6693 92.592 29.896C92.72 29.128 92.784 28.4027 92.784 27.72C92.784 25.608 92.1547 23.976 90.896 22.824C89.6373 21.6507 87.7813 21.064 85.328 21.064H81.296L78.16 38.76H82.192ZM97.905 32.168C98.225 30.376 98.865 28.808 99.825 27.464C100.806 26.0987 101.99 25.0427 103.377 24.296C104.785 23.5493 106.278 23.176 107.857 23.176C109.393 23.176 110.662 23.5067 111.665 24.168C112.668 24.8293 113.361 25.6613 113.745 26.664L114.321 23.464H117.265L114.161 41H111.217L111.825 37.736C111.057 38.76 110.044 39.6133 108.785 40.296C107.526 40.9573 106.14 41.288 104.625 41.288C103.26 41.288 102.054 41 101.009 40.424C99.9637 39.8267 99.153 38.984 98.577 37.896C98.001 36.808 97.713 35.5493 97.713 34.12C97.713 33.48 97.777 32.8293 97.905 32.168ZM112.785 32.2C112.87 31.752 112.913 31.272 112.913 30.76C112.913 29.2027 112.444 27.976 111.505 27.08C110.588 26.1627 109.414 25.704 107.985 25.704C106.897 25.704 105.852 25.96 104.849 26.472C103.868 26.984 103.025 27.7307 102.321 28.712C101.617 29.6933 101.148 30.8453 100.913 32.168C100.828 32.616 100.785 33.1067 100.785 33.64C100.785 35.2187 101.244 36.4667 102.161 37.384C103.078 38.28 104.252 38.728 105.681 38.728C106.769 38.728 107.804 38.472 108.785 37.96C109.788 37.4267 110.641 36.6693 111.345 35.688C112.07 34.6853 112.55 33.5227 112.785 32.2ZM143.338 23.144C145.13 23.144 146.559 23.6347 147.626 24.616C148.714 25.576 149.258 26.984 149.258 28.84C149.258 29.5227 149.205 30.1307 149.098 30.664L147.274 41H144.394L146.154 31.08C146.239 30.632 146.282 30.152 146.282 29.64C146.282 28.3387 145.93 27.3573 145.226 26.696C144.543 26.0133 143.573 25.672 142.314 25.672C140.863 25.672 139.615 26.12 138.57 27.016C137.546 27.8907 136.842 29.16 136.458 30.824L134.634 41H131.754L133.514 31.08C133.599 30.5893 133.642 30.0987 133.642 29.608C133.642 28.328 133.29 27.3573 132.586 26.696C131.903 26.0133 130.933 25.672 129.674 25.672C128.159 25.672 126.869 26.1627 125.802 27.144C124.735 28.104 124.042 29.5013 123.722 31.336V31.272L121.994 41H119.082L122.186 23.464H125.098L124.65 25.992C125.375 25.0747 126.271 24.3707 127.338 23.88C128.405 23.3893 129.525 23.144 130.698 23.144C132.17 23.144 133.407 23.4747 134.41 24.136C135.434 24.7973 136.106 25.768 136.426 27.048C137.151 25.8107 138.133 24.8507 139.37 24.168C140.629 23.4853 141.951 23.144 143.338 23.144ZM152.499 32.168C152.819 30.376 153.459 28.808 154.419 27.464C155.4 26.0987 156.584 25.0427 157.971 24.296C159.379 23.5493 160.872 23.176 162.451 23.176C163.987 23.176 165.256 23.5067 166.259 24.168C167.261 24.8293 167.955 25.6613 168.339 26.664L168.915 23.464H171.859L168.755 41H165.811L166.419 37.736C165.651 38.76 164.637 39.6133 163.379 40.296C162.12 40.9573 160.733 41.288 159.219 41.288C157.853 41.288 156.648 41 155.603 40.424C154.557 39.8267 153.747 38.984 153.171 37.896C152.595 36.808 152.307 35.5493 152.307 34.12C152.307 33.48 152.371 32.8293 152.499 32.168ZM167.379 32.2C167.464 31.752 167.507 31.272 167.507 30.76C167.507 29.2027 167.037 27.976 166.099 27.08C165.181 26.1627 164.008 25.704 162.579 25.704C161.491 25.704 160.445 25.96 159.443 26.472C158.461 26.984 157.619 27.7307 156.915 28.712C156.211 29.6933 155.741 30.8453 155.507 32.168C155.421 32.616 155.379 33.1067 155.379 33.64C155.379 35.2187 155.837 36.4667 156.755 37.384C157.672 38.28 158.845 38.728 160.275 38.728C161.363 38.728 162.397 38.472 163.379 37.96C164.381 37.4267 165.235 36.6693 165.939 35.688C166.664 34.6853 167.144 33.5227 167.379 32.2ZM176.3 38.6H184.908L184.46 41H172.524L172.94 38.6L183.724 25.832H175.276L175.692 23.464H187.468L187.052 25.832L176.3 38.6ZM193.326 20.616C192.857 20.616 192.462 20.4667 192.142 20.168C191.844 19.848 191.694 19.4533 191.694 18.984C191.694 18.344 191.929 17.8 192.398 17.352C192.868 16.8827 193.412 16.648 194.03 16.648C194.521 16.648 194.916 16.7973 195.214 17.096C195.513 17.3947 195.662 17.7893 195.662 18.28C195.662 18.92 195.428 19.4747 194.958 19.944C194.489 20.392 193.945 20.616 193.326 20.616ZM194.254 23.464L191.15 41H188.238L191.342 23.464H194.254ZM203.825 41.288C202.353 41.288 201.052 40.9893 199.921 40.392C198.812 39.7733 197.948 38.92 197.329 37.832C196.711 36.7227 196.401 35.4427 196.401 33.992C196.401 32.008 196.86 30.1947 197.777 28.552C198.695 26.888 199.953 25.576 201.553 24.616C203.175 23.656 204.977 23.176 206.961 23.176C208.433 23.176 209.735 23.4853 210.865 24.104C212.017 24.7013 212.903 25.5547 213.521 26.664C214.161 27.752 214.481 29.032 214.481 30.504C214.481 32.488 214.012 34.3013 213.073 35.944C212.135 37.5867 210.855 38.888 209.233 39.848C207.612 40.808 205.809 41.288 203.825 41.288ZM204.177 38.824C205.564 38.824 206.812 38.4507 207.921 37.704C209.031 36.936 209.895 35.9333 210.513 34.696C211.153 33.4373 211.473 32.0933 211.473 30.664C211.473 29.0427 211.004 27.8053 210.065 26.952C209.127 26.0773 207.953 25.64 206.545 25.64C205.159 25.64 203.921 26.024 202.833 26.792C201.745 27.5387 200.903 28.5413 200.305 29.8C199.708 31.0587 199.409 32.4133 199.409 33.864C199.409 35.4427 199.857 36.6693 200.753 37.544C201.649 38.3973 202.791 38.824 204.177 38.824Z" fill="#061E2D"/>
<path d="M16 12.696L13.088 29.176C12.7467 31.032 11.9147 32.504 10.592 33.592C9.29067 34.68 7.712 35.224 5.856 35.224C4.23467 35.224 2.95467 34.7973 2.016 33.944C1.09867 33.0907 0.64 31.9067 0.64 30.392C0.64 29.88 0.682667 29.4 0.768 28.952H3.68C3.616 29.272 3.584 29.592 3.584 29.912C3.584 30.744 3.808 31.4053 4.256 31.896C4.704 32.3867 5.39733 32.632 6.336 32.632C7.40267 32.632 8.256 32.312 8.896 31.672C9.55733 31.0107 9.984 30.1787 10.176 29.176L13.056 12.696H16ZM27.9768 35.224C26.1208 35.224 24.4888 34.84 23.0808 34.072C21.6728 33.2827 20.5741 32.184 19.7848 30.776C19.0168 29.368 18.6328 27.7573 18.6328 25.944C18.6328 23.4267 19.1981 21.144 20.3288 19.096C21.4808 17.0267 23.0594 15.4053 25.0648 14.232C27.0701 13.0373 29.3101 12.44 31.7848 12.44C33.6621 12.44 35.3048 12.8347 36.7128 13.624C38.1421 14.392 39.2408 15.48 40.0088 16.888C40.7768 18.2747 41.1608 19.8747 41.1608 21.688C41.1608 24.2267 40.5848 26.5307 39.4328 28.6C38.3021 30.648 36.7341 32.2693 34.7288 33.464C32.7234 34.6373 30.4728 35.224 27.9768 35.224ZM28.3928 32.6C30.2701 32.6 31.9448 32.12 33.4167 31.16C34.9101 30.1787 36.0728 28.8667 36.9048 27.224C37.7368 25.5813 38.1528 23.8 38.1528 21.88C38.1528 19.768 37.5448 18.104 36.3288 16.888C35.1128 15.672 33.4594 15.064 31.3688 15.064C29.4914 15.064 27.8061 15.5547 26.3128 16.536C24.8408 17.496 23.6888 18.7973 22.8568 20.44C22.0461 22.0613 21.6408 23.832 21.6408 25.752C21.6408 27.864 22.2381 29.5387 23.4328 30.776C24.6488 31.992 26.3021 32.6 28.3928 32.6ZM57.037 30.04H47.277L44.621 35H41.549L53.517 12.824H56.877L61.005 35H57.933L57.037 30.04ZM56.621 27.768L54.573 16.376L48.493 27.768H56.621ZM50.861 10.936C51.181 9.848 51.6717 9.016 52.333 8.44C53.0157 7.864 53.7837 7.576 54.637 7.576C55.0423 7.576 55.373 7.64 55.629 7.768C55.885 7.896 56.1943 8.09867 56.557 8.376C56.813 8.58933 57.0477 8.76 57.261 8.888C57.4957 8.99467 57.7517 9.048 58.029 9.048C58.3917 9.048 58.7117 8.93067 58.989 8.696C59.2877 8.46133 59.5117 8.12 59.661 7.672H61.357C61.037 8.73867 60.5357 9.56 59.853 10.136C59.1703 10.712 58.4023 11 57.549 11C57.1437 11 56.7917 10.936 56.493 10.808C56.2157 10.6587 55.9063 10.4453 55.565 10.168C55.2663 9.95467 55.021 9.79467 54.829 9.688C54.6583 9.58133 54.4343 9.528 54.157 9.528C53.7943 9.528 53.4743 9.64533 53.197 9.88C52.9197 10.1147 52.7063 10.4667 52.557 10.936H50.861ZM74.6955 35.224C72.8395 35.224 71.2075 34.84 69.7995 34.072C68.3915 33.2827 67.2928 32.184 66.5035 30.776C65.7355 29.368 65.3515 27.7573 65.3515 25.944C65.3515 23.4267 65.9168 21.144 67.0475 19.096C68.1995 17.0267 69.7782 15.4053 71.7835 14.232C73.7888 13.0373 76.0288 12.44 78.5035 12.44C80.3808 12.44 82.0235 12.8347 83.4315 13.624C84.8608 14.392 85.9595 15.48 86.7275 16.888C87.4955 18.2747 87.8795 19.8747 87.8795 21.688C87.8795 24.2267 87.3035 26.5307 86.1515 28.6C85.0208 30.648 83.4528 32.2693 81.4475 33.464C79.4422 34.6373 77.1915 35.224 74.6955 35.224ZM75.1115 32.6C76.9888 32.6 78.6635 32.12 80.1355 31.16C81.6288 30.1787 82.7915 28.8667 83.6235 27.224C84.4555 25.5813 84.8715 23.8 84.8715 21.88C84.8715 19.768 84.2635 18.104 83.0475 16.888C81.8315 15.672 80.1782 15.064 78.0875 15.064C76.2102 15.064 74.5248 15.5547 73.0315 16.536C71.5595 17.496 70.4075 18.7973 69.5755 20.44C68.7648 22.0613 68.3595 23.832 68.3595 25.752C68.3595 27.864 68.9568 29.5387 70.1515 30.776C71.3675 31.992 73.0208 32.6 75.1115 32.6Z" fill="#061E2D"/>
</svg>
